<svg aria-hidden="true" style="position: absolute; width: 0; height: 0; overflow: hidden;" version="1.1" xmlns="http://www.w3.org/2000/svg" xmlns:xlink="http://www.w3.org/1999/xlink">
<defs>
<symbol id="icon-facebook" viewBox="0 0 16 32">
<title>facebook</title>
<path d="M14.879 0.245c0 1.817 0 5.072 0 5.072s-3.738-0.373-4.674 1.060c-0.512 0.783-0.208 3.077-0.254 4.724 1.632 0 3.327 0 4.959 0-0.418 1.925-0.719 3.23-1.028 4.896-1.412 0-3.958 0-3.958 0v15.759c0 0-4.673 0-6.87 0 0.001-4.858-0.001-10.526 0-15.697-1.067 0-1.856 0-2.923 0 0-1.817 0-3.14 0-4.958 1.035 0 1.855 0 2.891 0 0.148-3.626 0.203-7.217 2.005-9.046 2.023-2.057 3.954-1.809 9.852-1.809z"></path>
</symbol>
<symbol id="icon-instagram" viewBox="0 0 32 32">
<title>instagram</title>
<path d="M22.467 0h-12.934c-5.256 0-9.533 4.276-9.533 9.533v12.934c0 5.256 4.276 9.533 9.533 9.533h12.934c5.256 0 9.533-4.276 9.533-9.533v-12.934c-0-5.256-4.277-9.533-9.533-9.533zM28.781 22.467c0 3.487-2.827 6.314-6.314 6.314h-12.934c-3.487 0-6.314-2.827-6.314-6.314v-12.934c0-3.487 2.827-6.314 6.314-6.314h12.934c3.487 0 6.314 2.827 6.314 6.314v12.934z"></path>
<path d="M16 7.724c-4.564 0-8.276 3.713-8.276 8.276s3.713 8.276 8.276 8.276 8.276-3.713 8.276-8.276-3.713-8.276-8.276-8.276zM16 21.057c-2.793 0-5.057-2.264-5.057-5.057s2.264-5.057 5.057-5.057c2.793 0 5.057 2.264 5.057 5.057s-2.264 5.057-5.057 5.057z"></path>
<path d="M26.276 7.786c0 1.095-0.888 1.983-1.983 1.983s-1.983-0.888-1.983-1.983c0-1.095 0.888-1.983 1.983-1.983s1.983 0.888 1.983 1.983z"></path>
</symbol>
<symbol id="icon-vimeo" viewBox="0 0 32 32">
<title>vimeo</title>
<path d="M0 0v32h32v-32h-32zM28.487 10.813c-0.247 4.115-6.219 10.984-7.735 12.593s-4.27 3.806-6.436 3.404-2.869-3.179-3.404-4.672c-0.119-0.332-2.073-7.55-2.537-8.942s-1.201-1.795-1.547-1.795c-0.557 0-2.104 1.207-2.104 1.207l-1.238-1.578c5.26-4.827 6.807-5.508 7.704-5.508s2.785 0.495 3.218 3.465c0.433 2.97 1.609 8.076 1.702 8.447s0.65 1.764 1.361 1.671 2.63-3.032 3.311-4.301c0.681-1.269 0.897-2.97 0.093-3.744s-3.001 0.031-3.001 0.031c0.65-3.249 3.094-5.074 4.703-5.631s3.311-0.34 4.332 0.309c0.559 0.355 1.807 1.238 1.578 5.043z"></path>
</symbol>
</defs>
</svg>
