<svg aria-hidden="true" style="position: absolute; width: 0; height: 0; overflow: hidden;" version="1.1" xmlns="http://www.w3.org/2000/svg" xmlns:xlink="http://www.w3.org/1999/xlink">
<defs>
<symbol id="icon-facebook" viewBox="0 0 32 32">
<title>facebook</title>
<path d="M29.333 0h-26.667c-1.493 0-2.667 1.173-2.667 2.667v26.667c0 1.493 1.173 2.667 2.667 2.667h26.667c1.493 0 2.667-1.173 2.667-2.667v-26.667c0-1.493-1.173-2.667-2.667-2.667zM16 30.933v-10.667h-4.267v-4.267h4.267v-3.733c0-3.040 2.347-5.6 5.333-5.867h4.8v4.267h-4.267c-0.907 0-1.6 0.693-1.6 1.6v3.733h5.333v4.267h-5.333v10.667h-4.267zM30.933 29.333c0 0.907-0.693 1.6-1.6 1.6h-8v-9.6h5.333v-6.4h-5.333v-2.667c0-0.32 0.213-0.533 0.533-0.533h5.333v-6.4h-5.92c-3.573 0.32-6.347 3.36-6.347 6.933v2.667h-4.267v6.4h4.267v9.6h-12.267c-0.907 0-1.6-0.693-1.6-1.6v-26.667c0-0.907 0.693-1.6 1.6-1.6h26.667c0.907 0 1.6 0.693 1.6 1.6v26.667z"></path>
</symbol>
<symbol id="icon-instagram-photo-camera-logo-outline" viewBox="0 0 32 32">
<title>instagram-photo-camera-logo-outline</title>
<path d="M3.722 8.667c-0.369 0-0.667-0.298-0.667-0.667v-6c0-0.369 0.298-0.667 0.667-0.667s0.667 0.298 0.667 0.667v6c0 0.369-0.298 0.667-0.667 0.667z"></path>
<path d="M5.972 8.667c-0.369 0-0.667-0.298-0.667-0.667v-6.5c0-0.369 0.298-0.667 0.667-0.667s0.667 0.298 0.667 0.667v6.5c0 0.369-0.298 0.667-0.667 0.667z"></path>
<path d="M8.222 8.667c-0.369 0-0.667-0.298-0.667-0.667v-6.5c0-0.369 0.298-0.667 0.667-0.667s0.667 0.298 0.667 0.667v6.5c0 0.369-0.298 0.667-0.667 0.667z"></path>
<path d="M24.861 32h-16.917c-5.049 0-7.945-2.657-7.945-7.292v-16.625c0-4.835 2.847-8.083 7.083-8.083h18.389c3.139 0 6.527 3.016 6.527 7.889v16.722c0 4.143-3.135 7.389-7.139 7.389zM7.083 1.333c-4.244 0-5.75 3.636-5.75 6.75v16.625c0 4.924 3.595 5.958 6.611 5.958h16.917c3.31 0 5.805-2.603 5.805-6.055v-16.722c0-4.049-2.696-6.556-5.194-6.556h-18.389z"></path>
<path d="M15.999 10.167c-2.823 0-5.111 2.289-5.111 5.112s2.289 5.111 5.111 5.111c2.822 0 5.111-2.288 5.111-5.111s-2.289-5.112-5.111-5.112zM15.999 17.833c-1.411 0-2.556-1.144-2.556-2.555s1.145-2.556 2.556-2.556 2.556 1.145 2.556 2.556-1.145 2.555-2.556 2.555z"></path>
<path d="M15.999 23.389c-4.473 0-8.111-3.639-8.111-8.111s3.639-8.111 8.111-8.111 8.111 3.639 8.111 8.111-3.639 8.111-8.111 8.111zM15.999 8.5c-3.737 0-6.778 3.041-6.778 6.778s3.041 6.778 6.778 6.778c3.737 0 6.778-3.041 6.778-6.778s-3.041-6.778-6.778-6.778z"></path>
<path d="M21.999 9.947h9.333v1.44h-9.333v-1.44z"></path>
<path d="M0.999 9.966h8.833v1.401h-8.833v-1.401z"></path>
<path d="M27.555 6.755c0 0.81-0.657 1.467-1.468 1.467h-2.176c-0.811 0-1.468-0.657-1.468-1.467v-2.177c0-0.81 0.657-1.467 1.468-1.467h2.176c0.811 0 1.468 0.657 1.468 1.467v2.177z"></path>
</symbol>
<symbol id="icon-twitter-circular-button" viewBox="0 0 32 32">
<title>twitter-circular-button</title>
<path d="M22.861 12.819c0-0.161-0.003-0.321-0.010-0.48 0.691-0.515 1.29-1.159 1.764-1.897-0.634 0.285-1.315 0.476-2.031 0.556 0.73-0.449 1.29-1.168 1.555-2.031-0.684 0.415-1.44 0.711-2.244 0.865-0.644-0.733-1.564-1.2-2.58-1.217-1.952-0.032-3.535 1.617-3.535 3.684 0 0.294 0.031 0.579 0.092 0.854-2.94-0.189-5.545-1.719-7.287-4.026-0.304 0.553-0.479 1.199-0.479 1.891 0 1.309 0.624 2.473 1.572 3.159-0.58-0.026-1.124-0.202-1.601-0.49 0 0.016 0 0.032 0 0.048 0 1.83 1.219 3.363 2.836 3.721-0.297 0.084-0.609 0.128-0.931 0.127-0.228-0.001-0.449-0.026-0.665-0.073 0.449 1.5 1.756 2.595 3.302 2.631-1.21 1.004-2.735 1.603-4.39 1.599-0.285 0-0.567-0.019-0.844-0.054 1.565 1.073 3.423 1.699 5.42 1.699 6.5 0.002 10.055-5.657 10.055-10.566z"></path>
<path d="M32 16c0-8.836-7.164-16-16-16s-16 7.164-16 16c0 8.836 7.164 16 16 16s16-7.164 16-16zM1.455 16c0-8.033 6.512-14.545 14.545-14.545s14.545 6.512 14.545 14.545-6.512 14.545-14.545 14.545-14.545-6.512-14.545-14.545z"></path>
</symbol>
</defs>
</svg>
